<svg width="158" height="100" viewBox="0 0 158 100" fill="none" xmlns="http://www.w3.org/2000/svg">
<path d="M156.935 36.2903C156.613 36.129 156.129 36.129 155.645 35.9677C155 35.9677 154.355 35.9677 153.71 36.129C152.581 37.2581 154.355 38.871 155 39.8387C155.806 41.7742 157.581 39.6774 157.742 38.5484C158.064 37.7419 157.742 36.7742 156.935 36.2903Z" fill="white"/>
<path d="M154.355 40.8064C153.71 39.8387 152.097 38.2258 152.258 36.7742C151.936 36.7742 151.613 36.9355 151.452 36.9355C150.323 37.0968 149.194 37.4194 148.065 37.4194C145.645 37.5806 143.387 37.2581 140.968 36.7742C136.613 35.8065 132.419 33.5484 128.71 30.3226C128.065 29.8387 127.581 29.3548 126.935 28.7097C124.355 26.2903 121.613 23.871 118.226 23.0645C115 22.2581 110.968 23.0645 109.516 26.129C109.516 26.2903 109.355 26.4516 109.194 26.4516C103.065 30.4839 97.0968 34.3548 92.9032 39.8387C92.2581 40.6452 91.7742 41.2903 91.2903 42.0968C90 44.0323 84.1936 53.7097 90.1613 59.0323C92.4194 61.129 95.8065 61.129 98.3871 59.0323C100.806 57.0968 101.935 54.0323 102.903 50.9677L103.065 50.6452C103.71 48.871 104.355 46.9355 105 45.1613C105.806 42.9032 106.613 40.6452 107.419 38.3871L107.581 37.7419C108.71 34.6774 110 30.9677 113.548 29.8387C114.032 29.6774 114.516 30 114.677 30.3226C114.839 30.8065 114.516 31.2903 114.194 31.4516C111.452 32.4194 110.323 35.4839 109.355 38.2258L109.194 38.871C108.387 41.129 107.581 43.3871 106.774 45.6452C106.129 47.4194 105.484 49.3548 104.839 51.129L104.677 51.2903C103.548 54.3548 102.258 57.7419 99.5161 60C97.9032 61.2903 96.129 61.9355 94.1936 61.9355C92.4194 61.9355 90.4839 61.2903 89.0323 60C83.5484 55.1613 85.9677 46.9355 89.8387 40.8064C90 40.4839 90.1613 40.3226 90.3226 40C83.871 42.4194 77.2581 43.7097 70.9678 43.7097C64.8387 43.7097 58.871 42.4194 54.0323 40C43.5484 35.4839 36.6129 23.871 36.9355 12.5806C36.9355 12.2581 37.0968 12.0968 37.2581 11.9355C37.2581 11.7742 37.2581 11.6129 37.2581 11.6129C37.0968 11.4516 36.9355 11.4516 36.9355 11.2903C36.2903 9.83871 35.1613 8.70968 33.7097 8.3871C29.5161 7.09677 23.5484 10.1613 21.129 12.9032C20.8065 13.3871 20.4839 13.7097 20.1613 14.1935C18.7097 16.2903 17.7419 18.5484 17.4194 21.129C16.7742 25.3226 17.4194 29.3548 19.5161 32.7419L19.6774 32.9032C19.8387 33.3871 19.6774 33.871 19.1936 34.0323H19.0323C14.8387 37.7419 10.3226 34.5161 6.93549 32.0968C6.61291 31.9355 6.29033 31.6129 5.96775 31.4516C4.03227 30.1613 2.74194 29.8387 1.61291 30.8065C0.322589 31.7742 0.161299 33.5484 0.80646 35C2.25807 38.7097 7.25807 40.3226 11.129 40.9677C14.8387 41.6129 18.7097 41.6129 22.0968 40.6452C23.5484 40.3226 25 39.6774 26.2903 39.0323C26.7742 38.871 27.2581 39.0323 27.4194 39.3548C27.5807 39.8387 27.4194 40.3226 27.0968 40.4839C25.9678 41.129 24.6774 41.6129 23.3871 41.9355C23.7097 56.129 40.1613 66.9355 47.0968 70.8064C59.1936 77.5806 73.0645 80.8064 86.6129 79.5161C86.7742 79.1936 87.0968 79.0323 87.4194 79.0323C87.7419 79.0323 88.0645 79.0323 88.5484 79.1936C93.2258 80.1613 95.4839 85 96.6129 88.871C96.6129 89.0323 96.7742 89.3548 96.7742 89.5161C97.0968 90.4839 97.4194 91.4516 97.4194 92.4194C97.4194 93.3871 97.0968 94.1935 96.6129 94.8387C96.4516 95.3226 96.129 95.6452 96.129 96.129C95.9678 96.9355 96.129 97.7419 96.6129 98.3871C97.0968 99.0323 97.9032 99.5161 98.871 99.5161C102.581 99.8387 104.355 95 104.839 92.4194C105.645 87.9032 103.548 82.9032 99.3548 78.7097C99.1936 78.5484 99.0323 78.3871 98.871 78.3871C98.5484 78.0645 98.5484 77.5806 98.871 77.0968C99.1936 76.7742 99.5161 76.7742 100 76.9355C102.258 75.9677 104.194 74.8387 106.29 73.3871C109.032 71.4516 111.613 69.0323 114.032 66.2903C116.774 63.0645 119.194 59.3548 121.935 54.5161C122.581 53.2258 123.387 52.4194 124.355 51.7742C121.774 51.129 119.516 49.0323 118.548 46.4516C118.387 45.9677 118.71 45.4839 119.032 45.3226C119.516 45.1613 120 45.4839 120.161 45.8064C120.968 48.3871 123.548 50.1613 126.129 50.1613C126.29 50.1613 126.452 50.3226 126.613 50.3226C128.065 49.8387 129.677 49.6774 131.29 49.5161C131.774 49.5161 132.258 49.3548 132.581 49.3548L133.71 49.1936C138.387 48.7097 143.226 48.0645 147.742 46.4516C149.839 45.6452 152.903 44.1935 155.323 41.9355C155 41.9355 154.516 41.6129 154.355 40.8064ZM120.161 36.6129C117.742 35.3226 119.839 31.7742 122.258 32.9032C125 34.1935 122.419 38.3871 120.161 36.6129Z" fill="white"/>
<path d="M115.161 68.0645C115 68.0645 114.677 68.0645 114.516 67.9032C112.581 70.1613 110.484 72.0968 108.387 73.7097C108.871 73.7097 109.355 73.7097 110 73.5484C111.129 73.3871 112.419 73.2258 113.548 73.7097C115.806 74.3548 117.258 75.8065 118.226 78.2258L118.387 78.3871C119.032 80.1613 119.839 82.0968 120.968 82.4194C121.613 82.5806 122.419 82.4194 123.387 81.9355C126.613 80.1613 124.839 75.4839 124.194 74.0323C122.581 70.1613 119.032 67.7419 115.161 68.0645Z" fill="white"/>
<path d="M15.9678 19.6774C16.4517 17.7419 17.0968 15.9677 18.0646 14.1935C17.5807 14.1935 16.9355 13.871 16.4517 13.5484C14.0323 12.0968 12.0968 8.3871 11.7743 6.29032C11.613 5 12.0968 4.19355 12.5807 3.3871C12.9033 2.74194 13.0646 2.41935 12.9033 1.77419C12.5807 0.806452 12.2581 0.806452 12.0968 0.645161C11.4517 0.483871 10.3226 0.967742 9.51619 1.77419C6.61296 4.51613 6.77425 7.74194 7.25812 10C8.38715 14.1935 11.9355 18.2258 15.9678 19.6774Z" fill="white"/>
<path d="M38.2258 10C41.1291 6.29032 48.0646 5.48387 52.2581 7.58065C53.3871 8.06452 54.5162 9.35484 55.4839 10.3226C56.7742 11.7742 58.0646 13.2258 59.1936 13.0645C59.8387 13.0645 60.4839 12.5806 60.8065 12.0968C61.6129 10.9677 61.9355 8.87097 61.6129 7.58065C60.3226 0.967742 51.1291 0.967742 49.1936 0.967742C45.3226 1.12903 41.4516 2.09677 38.2258 4.03226C37.5807 4.51613 35.4839 5.96774 34.8387 6.93548C36.4516 7.41935 37.5807 8.54839 38.2258 10Z" fill="white"/>
</svg>
