<svg width="115" height="22" viewBox="0 0 115 22" fill="none" xmlns="http://www.w3.org/2000/svg">
<path d="M43.4512 6.85557V10.6172C43.4512 11.645 43.5771 13.2951 44.6608 14.8403H38.931C38.6478 14.4033 38.445 13.865 38.445 13.3755V13.351C37.3683 14.4802 35.3896 15.3542 32.8725 15.3542C29.8694 15.3542 26.0414 14.1726 26.0414 10.5263C26.0414 6.88004 29.866 5.69841 32.8725 5.69841C35.3896 5.69841 37.3648 6.5724 38.445 7.72606V6.80313C38.445 4.64613 36.8544 3.61832 33.7465 3.61832C32.0509 3.61832 30.3834 3.84905 28.6354 4.72304L27.4817 1.51375C29.408 0.590823 32.3341 0.0489502 34.7987 0.0489502C40.2175 0.0524461 43.4512 2.46465 43.4512 6.85557ZM38.5464 10.3725C37.571 9.01257 35.7741 8.65249 34.3093 8.65249C32.8725 8.65249 30.9462 9.01257 30.9462 10.5263C30.9462 12.0401 32.8725 12.4002 34.3093 12.4002C35.7741 12.4002 37.571 12.0401 38.5464 10.6557V10.3725Z" fill="#00528D"/>
<path d="M63.7067 12.3232C63.7067 18.5635 57.7146 21.5246 53.2503 21.5246C48.1462 21.5246 45.4299 18.6509 44.9404 17.8503L46.3843 16.0989C48.737 17.9098 50.1564 18.0811 52.4672 18.0811C55.8828 18.0811 58.6271 15.508 58.6271 13.2462V12.117C57.2916 13.8614 55.0822 14.711 52.7469 14.711C48.2022 14.711 45.2236 11.9631 45.2236 7.41841C45.2236 2.8492 48.2022 0.101379 52.7469 0.101379C55.1871 0.101379 57.2916 0.9474 58.6271 2.69538V0.615284H63.7102V12.3232H63.7067ZM58.6481 7.40792C58.6481 6.35913 58.1691 5.3488 57.3161 4.73701C56.4037 4.08327 55.3584 3.7966 54.1802 3.7966C51.5093 3.7966 50.0725 5.18449 50.0725 7.41841C50.0725 9.62785 51.5093 11.0402 54.1802 11.0402C55.3584 11.0402 56.4002 10.7326 57.3126 10.0788C58.1691 9.47053 58.6481 8.4602 58.6481 7.40792Z" fill="#00528D"/>
<path d="M26.2686 0.566345L21.2099 14.7879H16.382L13.1448 5.34182L9.88655 14.7879H5.03417L0 0.566345H4.88035L7.83443 9.65582L10.9423 0.566345H15.4102L18.5181 9.65582L21.4721 0.566345H26.2686Z" fill="#00528D"/>
<path d="M94.4187 6.41859V14.7879H89.3845V6.70176C89.3845 4.92931 88.4616 3.82459 86.5843 3.82459C84.9657 3.82459 83.7071 4.69858 82.7842 6.36615V6.41859V12.145L82.8087 14.7879H77.75V6.70176C77.75 4.92931 76.8271 3.82459 74.9498 3.82459C73.3311 3.82459 72.1005 4.67061 71.1741 6.31371V14.7879H66.1155V0.566365H71.1741V2.87719C72.3313 1.0558 74.282 0.0524597 76.7187 0.0524597C79.6973 0.0524597 81.5466 1.4893 82.3402 3.67427C83.2911 1.5697 85.3957 0.0524597 88.3497 0.0524597C92.468 0.0524597 94.4187 2.77231 94.4187 6.41859Z" fill="#00528D"/>
<path d="M95.8485 7.67711C95.8485 2.90164 99.4423 0 105.169 0C110.871 0 114.464 2.90164 114.464 7.67711C114.464 12.4281 110.871 15.3787 105.169 15.3787C99.4423 15.3787 95.8485 12.4281 95.8485 7.67711ZM109.637 7.67711C109.637 5.16002 107.763 3.87701 105.169 3.87701C102.575 3.87701 100.701 5.16002 100.701 7.67711C100.701 10.1662 102.575 11.4772 105.169 11.4772C107.763 11.4772 109.637 10.1662 109.637 7.67711Z" fill="#00528D"/>
</svg>
